<svg width="156" height="104" viewBox="0 0 156 104" fill="none" xmlns="http://www.w3.org/2000/svg">
<path d="M38.77 89.21C41.9233 90.95 44.6233 92.7067 46.87 94.48C48.59 95.83 51.37 95.61 53.4 96.67C56.0733 98.07 58.6133 99.0967 61.02 99.75C63.2866 100.377 63.64 99.81 62.08 98.05C59.73 95.38 55.02 94.84 51.68 94.32C51.3133 94.26 50.9967 94.1067 50.73 93.86C48.8233 92.0867 46.5867 90.5367 44.02 89.21C42.77 88.56 41.8 87.38 40.87 86.34C40.8239 86.2896 40.7912 86.2287 40.7746 86.1624C40.758 86.0961 40.7581 86.0264 40.7748 85.9595C40.7915 85.8925 40.8244 85.8302 40.8706 85.7781C40.9168 85.7259 40.975 85.6854 41.04 85.66C45.02 84.19 49.55 83.83 53.57 82.97C55.0833 82.6434 55.0867 82.2967 53.58 81.93C46.97 80.32 36.86 88.25 32.7 80.31C32.6426 80.1993 32.6141 80.0758 32.6172 79.9511C32.6203 79.8263 32.6549 79.7044 32.7178 79.5967C32.7807 79.4889 32.8698 79.3988 32.9768 79.3347C33.0838 79.2706 33.2053 79.2346 33.33 79.23L42.18 78.94C43.1933 78.9067 43.3467 78.5267 42.64 77.8C41.7133 76.8467 40.06 76.58 37.68 77C35.04 77.4667 32.4833 77.9 30.01 78.3C29.13 78.44 28.6467 78.0634 28.56 77.17C28.4467 76.0367 27.91 75.1367 26.95 74.47C26.8417 74.3939 26.751 74.2956 26.6837 74.1816C26.6165 74.0676 26.5744 73.9406 26.5602 73.809C26.546 73.6774 26.5601 73.5443 26.6014 73.4186C26.6428 73.2929 26.7105 73.1775 26.8 73.08C27.54 72.28 28.12 71.41 28.54 70.47C28.7067 70.1034 28.6167 69.82 28.27 69.62L26.07 68.29C25.9986 68.2478 25.9403 68.1866 25.9015 68.1133C25.8627 68.0401 25.8449 67.9575 25.8501 67.8747C25.8553 67.792 25.8832 67.7122 25.9308 67.6443C25.9785 67.5765 26.0439 67.5231 26.12 67.49C27.9667 66.69 29.91 66.4767 31.95 66.85C35.25 67.4634 38.6433 68.1767 42.13 68.99C43.39 69.2834 43.59 68.9467 42.73 67.98C41.5233 66.64 39.9433 65.82 37.99 65.52C34.8567 65.0467 31.64 64.5134 28.34 63.92C28.2122 63.8962 28.0911 63.8446 27.9856 63.769C27.88 63.6934 27.7925 63.5956 27.7294 63.4828C27.6663 63.37 27.6291 63.2448 27.6206 63.1164C27.612 62.988 27.6323 62.8594 27.68 62.74C28.33 61.09 28.84 59.31 29.74 57.83C33 52.45 36.3433 48.1734 39.77 45C41.1567 43.72 42.5367 42.42 43.91 41.1C44.0224 40.9873 44.1085 40.8517 44.1621 40.703C44.2157 40.5543 44.2355 40.3962 44.22 40.24C43.24 31.0134 43.47 21.3834 44.91 11.35C45.15 9.66336 45.6933 9.56003 46.54 11.04C50.0467 17.18 54.24 23.4267 59.12 29.78C59.3533 30.08 59.6533 30.19 60.02 30.11C69.5666 27.99 79.5967 28.19 90.11 30.71C90.4043 30.7795 90.7134 30.7434 90.9825 30.6079C91.2516 30.4725 91.4632 30.2465 91.58 29.97C94.9467 21.97 99.5867 14.5134 105.5 7.60002C106.173 6.81336 106.473 6.94336 106.4 7.99003L104.7 32.89C104.673 33.2167 104.757 33.5134 104.95 33.78C110.583 41.7267 115.117 50.1934 118.55 59.18C118.615 59.3513 118.646 59.5338 118.64 59.717C118.634 59.9002 118.592 60.0804 118.515 60.247C118.439 60.4136 118.33 60.5634 118.195 60.6875C118.061 60.8117 117.902 60.9077 117.73 60.97L116.23 61.52C115.93 61.6267 115.757 61.84 115.71 62.16C115.683 62.36 115.683 62.56 115.71 62.76C115.734 62.9463 115.815 63.1202 115.943 63.2567C116.07 63.3932 116.237 63.4854 116.42 63.52L119 64.02C119.153 64.0534 119.227 64.15 119.22 64.31L119.21 64.58C119.208 64.6959 119.164 64.8073 119.085 64.8937C119.006 64.9801 118.897 65.0356 118.78 65.05C112.53 65.82 105.65 66.81 100.56 70.11C100.42 70.2034 100.393 70.3234 100.48 70.47L100.61 70.71C100.65 70.77 100.703 70.7867 100.77 70.76C105.277 68.7067 109.757 67.3967 114.21 66.83C114.308 66.8193 114.407 66.8312 114.499 66.8649C114.592 66.8986 114.675 66.9532 114.742 67.0241C114.809 67.0951 114.858 67.1806 114.886 67.2736C114.913 67.3667 114.918 67.4648 114.9 67.56C114.727 68.5134 115.14 69.0867 116.14 69.28C117.073 69.4667 117.187 69.8834 116.48 70.53C115.74 71.2034 115.66 71.95 116.24 72.77C116.395 72.9908 116.492 73.2476 116.521 73.516C116.549 73.7843 116.509 74.0553 116.404 74.303C116.299 74.5508 116.132 74.7669 115.919 74.931C115.707 75.095 115.456 75.2014 115.19 75.24C112.737 75.5934 110.29 75.8067 107.85 75.88C106.303 75.9267 104.767 76.3434 103.24 77.13C103.06 77.2167 103.003 77.3567 103.07 77.55L103.16 77.79C103.22 77.95 103.333 78.02 103.5 78L113.48 76.63C114.2 76.53 114.417 76.8134 114.13 77.48C113.11 79.84 109.39 86.7 105.95 85.43C103.71 84.6034 101.34 84.23 98.84 84.31C98.8 84.3167 98.78 84.34 98.78 84.38L98.71 84.87C98.6767 85.0834 98.7667 85.1934 98.98 85.2C101.467 85.2867 104.017 85.8667 106.63 86.94C106.685 86.9632 106.733 86.9996 106.77 87.0459C106.807 87.0922 106.832 87.1471 106.843 87.2055C106.854 87.2639 106.851 87.3241 106.832 87.3808C106.814 87.4374 106.783 87.4887 106.74 87.53C102.68 91.5634 97.98 94.2567 92.64 95.61C92.4538 95.6574 92.2798 95.7413 92.1285 95.8565C91.9772 95.9717 91.8518 96.1158 91.76 96.28L91.11 97.43C90.93 97.75 90.6766 97.9867 90.35 98.14L85.77 100.3C85.27 100.533 84.9667 100.38 84.86 99.84C84.7867 99.48 84.52 99.2967 84.06 99.29C83.9283 99.29 83.7988 99.3173 83.68 99.37C77.84 102.02 72.22 99.67 66.08 100.05C64.8533 100.13 64.67 100.61 65.53 101.49C67.92 103.93 71.97 101.21 74.8 101.82C81.8667 103.34 87.84 102.3 92.72 98.7C98.14 94.71 104.79 92.6 109.41 87.85C109.527 87.7307 109.674 87.6473 109.834 87.61C109.993 87.5727 110.159 87.5832 110.31 87.64C119.583 90.8667 127.92 95.2334 135.32 100.74C135.973 101.227 136.517 101.127 136.95 100.44C137.03 100.32 137.093 100.193 137.14 100.06C137.42 99.2134 137.18 98.56 136.42 98.1C128.353 93.16 120.037 89.1067 111.47 85.94C111.137 85.8134 111.077 85.61 111.29 85.33C113.037 83.0634 114.727 80.7467 116.36 78.38C116.7 77.8934 117.127 77.4767 117.64 77.13C117.927 76.9281 118.265 76.8167 118.61 76.81C127.217 76.55 135.36 77.13 143.04 78.55C146.6 79.21 149.92 80.5 153.35 81.56C153.465 81.5946 153.588 81.6005 153.706 81.5772C153.824 81.5538 153.935 81.502 154.028 81.4261C154.122 81.3502 154.196 81.2526 154.243 81.1417C154.29 81.0309 154.31 80.9101 154.3 80.79L154.26 80.41C154.193 79.6634 153.8 79.1867 153.08 78.98C141.79 75.78 130.89 75.2 119.54 74.61C119.1 74.5834 118.943 74.36 119.07 73.94C119.65 71.9734 119.85 69.8634 119.67 67.61C119.638 67.1994 119.757 66.7913 120.006 66.4631C120.255 66.135 120.616 65.9097 121.02 65.83C129.127 64.1967 136.917 63.1567 144.39 62.71C146.023 62.6167 147.65 62.6634 149.27 62.85C149.53 62.8767 149.64 62.7634 149.6 62.51L149.52 62.01C149.505 61.9238 149.461 61.8458 149.395 61.7906C149.328 61.7354 149.245 61.7067 149.16 61.71C140.973 61.8234 132.513 62.5434 123.78 63.87C123.644 63.891 123.505 63.8834 123.372 63.8477C123.239 63.8121 123.115 63.7491 123.007 63.6627C122.899 63.5764 122.81 63.4685 122.745 63.3459C122.68 63.2233 122.641 63.0885 122.63 62.95C122.497 61.29 122.177 59.59 121.67 57.85C121.07 55.8034 120.48 53.7134 119.9 51.58C119.44 49.8734 118.823 48.3 118.05 46.86C115.497 42.1267 112.43 37.88 108.85 34.12C108.623 33.88 108.49 33.5934 108.45 33.26C108.35 32.4534 108.327 31.6267 108.38 30.78C108.99 21.42 110.2 11.34 109.4 2.35002C109.327 1.49669 108.873 1.23336 108.04 1.56003C107.853 1.63336 107.697 1.74669 107.57 1.90003C101.477 9.38003 95.61 17.5934 89.97 26.54C89.77 26.8667 89.4833 26.9867 89.11 26.9C81.1033 25.1134 72.8366 25.25 64.31 27.31C64.0167 27.3795 63.71 27.3678 63.4228 27.2762C63.1357 27.1846 62.8789 27.0165 62.68 26.79C56.41 19.6 52.35 11.04 45.44 4.66003C44.32 3.63336 43.76 3.88003 43.76 5.40003C43.76 7.62003 43.02 9.96003 42.77 12.24C41.7767 21.5134 41.54 30.94 42.06 40.52C42.08 40.94 41.9333 41.2934 41.62 41.58C40.8533 42.2934 40.0666 42.9634 39.26 43.59C35.8733 46.1834 33.0033 49.2067 30.65 52.66C28.4033 55.96 26.1367 59.53 23.85 63.37C23.7508 63.5324 23.6086 63.6641 23.4392 63.7506C23.2697 63.8371 23.0796 63.875 22.89 63.86C19.1233 63.5467 15.4033 63.5334 11.73 63.82C7.96999 64.1067 4.66332 65.0634 1.80999 66.69C1.72332 66.7367 1.69999 66.8034 1.73999 66.89L1.83999 67.13C1.85332 67.17 1.87999 67.1834 1.91999 67.17C9.07999 64.38 16.62 65.32 24.19 65.99C24.2508 65.9963 24.3088 66.0184 24.3584 66.054C24.408 66.0897 24.4474 66.1377 24.4727 66.1933C24.498 66.249 24.5082 66.3102 24.5025 66.371C24.4968 66.4319 24.4752 66.4901 24.44 66.54L22.7 68.84C22.5918 68.9828 22.5256 69.153 22.5091 69.3313C22.4925 69.5097 22.5262 69.6891 22.6063 69.8494C22.6864 70.0096 22.8098 70.1442 22.9624 70.238C23.115 70.3318 23.2909 70.381 23.47 70.38C23.8967 70.38 24.3133 70.29 24.72 70.11C25.1533 69.9167 25.4567 70.04 25.63 70.48C26.44 72.57 23.38 73.11 23.53 74.92C23.57 75.4134 23.83 75.6367 24.31 75.59C24.5877 75.5595 24.8668 75.6338 25.0925 75.7985C25.3183 75.9631 25.4743 76.2062 25.53 76.48L26.08 79.15C26.16 79.5567 26.0033 79.8167 25.61 79.93C18.8 81.86 10.67 83.16 5.06999 87.02C2.42999 88.8334 2.55999 89.0634 5.45999 87.71C11.54 84.8834 18.8333 82.6067 27.34 80.88C27.6867 80.8134 28.0033 80.8867 28.29 81.1L34.74 86.05C34.8372 86.1243 34.9133 86.2228 34.9606 86.3356C35.0079 86.4484 35.0248 86.5717 35.0096 86.6931C34.9945 86.8145 34.9477 86.9298 34.8741 87.0275C34.8005 87.1253 34.7025 87.202 34.59 87.25C27.47 90.4 19.19 93.65 13.67 99.61C13.6033 99.6834 13.6 99.7567 13.66 99.83L13.83 100.02C13.8433 100.04 13.8567 100.043 13.87 100.03C20.79 95.0434 28.3133 91.08 36.44 88.14C36.6272 88.0721 36.8315 88.0699 37.019 88.1336C37.2065 88.1973 37.3656 88.3231 37.47 88.49C37.7167 88.8634 38.0733 89.08 38.54 89.14C38.619 89.1466 38.6974 89.1705 38.77 89.21Z" stroke="#9DD37D" stroke-width="2"/>
<path d="M93.42 53.94L93.32 55.76C93.3146 55.8501 93.3272 55.9405 93.3571 56.0257C93.387 56.1109 93.4335 56.1893 93.494 56.2563C93.5545 56.3233 93.6278 56.3776 93.7095 56.416C93.7912 56.4544 93.8798 56.4762 93.97 56.48L95.29 56.55C95.5065 56.5617 95.7227 56.5387 95.9263 56.4822C96.1299 56.4257 96.317 56.3369 96.4767 56.2208C96.6364 56.1047 96.7657 55.9636 96.8572 55.8056C96.9488 55.6476 97.0007 55.4758 97.01 55.3L97.04 54.8C97.0602 54.4454 96.9061 54.0955 96.6117 53.8274C96.3174 53.5592 95.9067 53.3947 95.47 53.37L94.14 53.3C94.0507 53.2946 93.9611 53.3069 93.8765 53.3361C93.792 53.3654 93.714 53.4111 93.6471 53.4705C93.5802 53.53 93.5257 53.6021 93.4867 53.6826C93.4478 53.7632 93.4251 53.8507 93.42 53.94Z" stroke="#9DD37D" stroke-width="2"/>
<path d="M56.1384 56.1812C56.239 55.9703 56.2903 55.7383 56.2894 55.4986C56.2885 55.2589 56.2354 55.0161 56.133 54.7842C56.0307 54.5522 55.8811 54.3356 55.693 54.1468C55.5048 53.9579 55.2817 53.8005 55.0363 53.6835C54.7909 53.5664 54.5282 53.4921 54.263 53.4647C53.9978 53.4373 53.7354 53.4574 53.4907 53.5238C53.246 53.5903 53.0239 53.7017 52.8371 53.8519C52.6502 54.002 52.5022 54.1879 52.4016 54.3989C52.3009 54.6098 52.2496 54.8418 52.2505 55.0815C52.2515 55.3212 52.3046 55.564 52.407 55.7959C52.5093 56.0279 52.6588 56.2445 52.847 56.4333C53.0352 56.6222 53.2583 56.7796 53.5037 56.8966C53.749 57.0137 54.0118 57.088 54.277 57.1154C54.5422 57.1428 54.8046 57.1227 55.0493 57.0563C55.2939 56.9898 55.516 56.8784 55.7029 56.7282C55.8898 56.5781 56.0377 56.3922 56.1384 56.1812Z" stroke="#9DD37D" stroke-width="2"/>
<path d="M72.3 88.85C76.73 92.23 84.92 90.75 83.86 83.59C83.85 83.5209 83.8244 83.4549 83.7851 83.3973C83.7459 83.3397 83.6942 83.292 83.634 83.258C83.5738 83.2241 83.5069 83.2047 83.4385 83.2016C83.3701 83.1985 83.3022 83.2116 83.24 83.24C81.88 83.85 81.41 85.4 80.98 86.71C80.25 88.97 77.77 89.31 75.92 88C74.9866 87.3267 74.22 86.4833 73.62 85.47C73.4467 85.1767 73.3767 84.86 73.41 84.52C73.8567 80.18 74.8067 76.0667 76.26 72.18C76.3843 71.8468 76.6029 71.5552 76.89 71.34C79.37 69.46 81.83 67.44 82.33 64.18C82.4233 63.52 82.15 63.1133 81.51 62.96C76.32 61.72 69.82 61.58 65.18 64.27C65.048 64.3467 64.937 64.4544 64.8568 64.5835C64.7766 64.7125 64.7296 64.859 64.72 65.01C64.38 70.62 72.54 72.36 72.44 78.67C72.36 83.7567 70.2767 87.0233 66.19 88.47C65.9893 88.5413 65.7763 88.571 65.5638 88.5574C65.3513 88.5438 65.1438 88.4871 64.9539 88.3907C64.764 88.2944 64.5957 88.1604 64.4592 87.997C64.3227 87.8335 64.2209 87.644 64.16 87.44L63.57 85.49C63.1766 84.1833 62.59 84.0867 61.81 85.2C61.14 86.16 61.28 87.84 62.29 88.62C64.74 90.51 68.45 90.61 71.22 88.81C71.3846 88.7049 71.5767 88.6523 71.7699 88.6594C71.9632 88.6666 72.1483 88.7331 72.3 88.85Z" stroke="#9DD37D" stroke-width="2"/>
<path d="M78.37 64.92C75.43 64.45 71.33 62.78 68.76 64.61C68.6879 64.661 68.6273 64.7265 68.5821 64.8024C68.537 64.8783 68.5083 64.9628 68.4979 65.0505C68.4876 65.1382 68.4957 65.2271 68.5219 65.3114C68.5481 65.3958 68.5918 65.4736 68.65 65.54L73.21 70.89C73.69 71.4567 74.25 71.5467 74.89 71.16C76.73 70.04 78.18 68.5833 79.24 66.79C79.3442 66.6143 79.4041 66.4157 79.4145 66.2117C79.4249 66.0078 79.3854 65.8046 79.2995 65.6201C79.2137 65.4355 79.084 65.2752 78.922 65.1532C78.7599 65.0311 78.5704 64.9511 78.37 64.92Z" stroke="#9DD37D" stroke-width="2"/>
<path d="M38.54 89.14C38.0733 89.08 37.7167 88.8634 37.47 88.49C37.3656 88.3231 37.2065 88.1973 37.019 88.1336C36.8315 88.0699 36.6272 88.0721 36.44 88.14C28.3133 91.08 20.79 95.0434 13.87 100.03C13.8567 100.043 13.8433 100.04 13.83 100.02L13.66 99.83C13.6 99.7567 13.6033 99.6834 13.67 99.61C19.19 93.65 27.47 90.4 34.59 87.25C34.7025 87.202 34.8005 87.1253 34.8741 87.0275C34.9477 86.9298 34.9945 86.8145 35.0096 86.6931C35.0248 86.5717 35.0079 86.4484 34.9606 86.3356C34.9133 86.2228 34.8372 86.1243 34.74 86.05L28.29 81.1C28.0033 80.8867 27.6867 80.8134 27.34 80.88C18.8333 82.6067 11.54 84.8834 5.45999 87.71C2.55999 89.0634 2.42999 88.8334 5.06999 87.02C10.67 83.16 18.8 81.86 25.61 79.93C26.0033 79.8167 26.16 79.5567 26.08 79.15L25.53 76.48C25.4743 76.2062 25.3183 75.9631 25.0925 75.7985C24.8668 75.6338 24.5877 75.5595 24.31 75.59C23.83 75.6367 23.57 75.4134 23.53 74.92C23.38 73.11 26.44 72.57 25.63 70.48C25.4567 70.04 25.1533 69.9167 24.72 70.11C24.3133 70.29 23.8967 70.38 23.47 70.38C23.2909 70.381 23.115 70.3318 22.9624 70.238C22.8098 70.1442 22.6864 70.0096 22.6063 69.8494C22.5262 69.6891 22.4925 69.5097 22.5091 69.3313C22.5256 69.153 22.5918 68.9828 22.7 68.84L24.44 66.54C24.4752 66.4901 24.4968 66.4319 24.5025 66.371C24.5082 66.3102 24.498 66.249 24.4727 66.1933C24.4474 66.1377 24.408 66.0897 24.3584 66.054C24.3088 66.0184 24.2508 65.9963 24.19 65.99C16.62 65.32 9.07999 64.38 1.91999 67.17C1.87999 67.1834 1.85332 67.17 1.83999 67.13L1.73999 66.89C1.69999 66.8034 1.72332 66.7367 1.80999 66.69C4.66332 65.0634 7.96999 64.1067 11.73 63.82C15.4033 63.5334 19.1233 63.5467 22.89 63.86C23.0796 63.875 23.2697 63.8371 23.4392 63.7506C23.6086 63.6641 23.7508 63.5324 23.85 63.37C26.1367 59.53 28.4033 55.96 30.65 52.66C33.0033 49.2067 35.8733 46.1834 39.26 43.59C40.0666 42.9634 40.8533 42.2934 41.62 41.58C41.9333 41.2934 42.08 40.94 42.06 40.52C41.54 30.94 41.7767 21.5134 42.77 12.24C43.02 9.96003 43.76 7.62003 43.76 5.40003C43.76 3.88003 44.32 3.63336 45.44 4.66003C52.35 11.04 56.41 19.6 62.68 26.79C62.8789 27.0165 63.1357 27.1846 63.4228 27.2762C63.71 27.3678 64.0167 27.3795 64.31 27.31C72.8366 25.25 81.1033 25.1134 89.11 26.9C89.4833 26.9867 89.77 26.8667 89.97 26.54C95.61 17.5934 101.477 9.38003 107.57 1.90003C107.697 1.74669 107.853 1.63336 108.04 1.56003C108.873 1.23336 109.327 1.49669 109.4 2.35002C110.2 11.34 108.99 21.42 108.38 30.78C108.327 31.6267 108.35 32.4534 108.45 33.26C108.49 33.5934 108.623 33.88 108.85 34.12C112.43 37.88 115.497 42.1267 118.05 46.86C118.823 48.3 119.44 49.8734 119.9 51.58C120.48 53.7134 121.07 55.8034 121.67 57.85C122.177 59.59 122.497 61.29 122.63 62.95C122.641 63.0885 122.68 63.2233 122.745 63.3459C122.81 63.4685 122.899 63.5764 123.007 63.6627C123.115 63.7491 123.239 63.8121 123.372 63.8477C123.505 63.8834 123.644 63.891 123.78 63.87C132.513 62.5434 140.973 61.8234 149.16 61.71C149.245 61.7067 149.328 61.7354 149.395 61.7906C149.461 61.8458 149.505 61.9238 149.52 62.01L149.6 62.51C149.64 62.7634 149.53 62.8767 149.27 62.85C147.65 62.6634 146.023 62.6167 144.39 62.71C136.917 63.1567 129.127 64.1967 121.02 65.83C120.616 65.9097 120.255 66.135 120.006 66.4631C119.757 66.7913 119.638 67.1994 119.67 67.61C119.85 69.8634 119.65 71.9734 119.07 73.94C118.943 74.36 119.1 74.5834 119.54 74.61C130.89 75.2 141.79 75.78 153.08 78.98C153.8 79.1867 154.193 79.6634 154.26 80.41L154.3 80.79C154.31 80.9101 154.29 81.0309 154.243 81.1417C154.196 81.2526 154.122 81.3502 154.028 81.4261C153.935 81.502 153.824 81.5538 153.706 81.5772C153.588 81.6005 153.465 81.5946 153.35 81.56C149.92 80.5 146.6 79.21 143.04 78.55C135.36 77.13 127.217 76.55 118.61 76.81C118.265 76.8167 117.927 76.9281 117.64 77.13C117.127 77.4767 116.7 77.8934 116.36 78.38C114.727 80.7467 113.037 83.0634 111.29 85.33C111.077 85.61 111.137 85.8134 111.47 85.94C120.037 89.1067 128.353 93.16 136.42 98.1C137.18 98.56 137.42 99.2134 137.14 100.06C137.093 100.193 137.03 100.32 136.95 100.44C136.517 101.127 135.973 101.227 135.32 100.74C127.92 95.2334 119.583 90.8667 110.31 87.64C110.159 87.5832 109.993 87.5727 109.834 87.61C109.674 87.6473 109.527 87.7307 109.41 87.85C104.79 92.6 98.14 94.71 92.72 98.7C87.84 102.3 81.8667 103.34 74.8 101.82C71.97 101.21 67.92 103.93 65.53 101.49C64.67 100.61 64.8533 100.13 66.08 100.05C72.22 99.67 77.84 102.02 83.68 99.37C83.7988 99.3173 83.9283 99.29 84.06 99.29C84.52 99.2967 84.7867 99.48 84.86 99.84C84.9667 100.38 85.27 100.533 85.77 100.3L90.35 98.14C90.6766 97.9867 90.93 97.75 91.11 97.43L91.76 96.28C91.8518 96.1158 91.9772 95.9717 92.1285 95.8565C92.2798 95.7413 92.4538 95.6574 92.64 95.61C97.98 94.2567 102.68 91.5634 106.74 87.53C106.783 87.4887 106.814 87.4374 106.832 87.3808C106.851 87.3241 106.854 87.2639 106.843 87.2055C106.832 87.1471 106.807 87.0922 106.77 87.0459C106.733 86.9996 106.685 86.9632 106.63 86.94C104.017 85.8667 101.467 85.2867 98.98 85.2C98.7667 85.1934 98.6767 85.0834 98.71 84.87L98.78 84.38C98.78 84.34 98.8 84.3167 98.84 84.31C101.34 84.23 103.71 84.6034 105.95 85.43C109.39 86.7 113.11 79.84 114.13 77.48C114.417 76.8134 114.2 76.53 113.48 76.63L103.5 78C103.333 78.02 103.22 77.95 103.16 77.79L103.07 77.55C103.003 77.3567 103.06 77.2167 103.24 77.13C104.767 76.3434 106.303 75.9267 107.85 75.88C110.29 75.8067 112.737 75.5934 115.19 75.24C115.456 75.2014 115.707 75.095 115.919 74.931C116.132 74.7669 116.299 74.5508 116.404 74.303C116.509 74.0553 116.549 73.7843 116.521 73.516C116.492 73.2476 116.395 72.9908 116.24 72.77C115.66 71.95 115.74 71.2034 116.48 70.53C117.187 69.8834 117.073 69.4667 116.14 69.28C115.14 69.0867 114.727 68.5134 114.9 67.56C114.918 67.4648 114.913 67.3667 114.886 67.2736C114.858 67.1806 114.809 67.0951 114.742 67.0241C114.675 66.9532 114.592 66.8986 114.499 66.8649C114.407 66.8312 114.308 66.8193 114.21 66.83C109.757 67.3967 105.277 68.7067 100.77 70.76C100.703 70.7867 100.65 70.77 100.61 70.71L100.48 70.47C100.393 70.3234 100.42 70.2034 100.56 70.11C105.65 66.81 112.53 65.82 118.78 65.05C118.897 65.0356 119.006 64.9801 119.085 64.8937C119.164 64.8073 119.208 64.6959 119.21 64.58L119.22 64.31C119.227 64.15 119.153 64.0534 119 64.02L116.42 63.52C116.237 63.4854 116.07 63.3932 115.943 63.2567C115.815 63.1202 115.734 62.9463 115.71 62.76C115.683 62.56 115.683 62.36 115.71 62.16C115.757 61.84 115.93 61.6267 116.23 61.52L117.73 60.97C117.902 60.9077 118.061 60.8117 118.195 60.6875C118.33 60.5634 118.439 60.4136 118.515 60.247C118.592 60.0804 118.634 59.9002 118.64 59.717C118.646 59.5338 118.615 59.3513 118.55 59.18C115.117 50.1934 110.583 41.7267 104.95 33.78C104.757 33.5134 104.673 33.2167 104.7 32.89L106.4 7.99003C106.473 6.94336 106.173 6.81336 105.5 7.60002C99.5867 14.5134 94.9467 21.97 91.58 29.97C91.4632 30.2465 91.2516 30.4725 90.9825 30.6079C90.7134 30.7434 90.4043 30.7795 90.11 30.71C79.5967 28.19 69.5666 27.99 60.02 30.11C59.6533 30.19 59.3533 30.08 59.12 29.78C54.24 23.4267 50.0467 17.18 46.54 11.04C45.6933 9.56003 45.15 9.66336 44.91 11.35C43.47 21.3834 43.24 31.0134 44.22 40.24C44.2355 40.3962 44.2157 40.5543 44.1621 40.703C44.1085 40.8517 44.0224 40.9873 43.91 41.1C42.5367 42.42 41.1567 43.72 39.77 45C36.3433 48.1734 33 52.45 29.74 57.83C28.84 59.31 28.33 61.09 27.68 62.74C27.6323 62.8594 27.612 62.988 27.6206 63.1164C27.6291 63.2448 27.6663 63.37 27.7294 63.4828C27.7925 63.5956 27.88 63.6934 27.9856 63.769C28.0911 63.8446 28.2122 63.8962 28.34 63.92C31.64 64.5134 34.8567 65.0467 37.99 65.52C39.9433 65.82 41.5233 66.64 42.73 67.98C43.59 68.9467 43.39 69.2834 42.13 68.99C38.6433 68.1767 35.25 67.4634 31.95 66.85C29.91 66.4767 27.9667 66.69 26.12 67.49C26.0439 67.5231 25.9785 67.5765 25.9308 67.6443C25.8832 67.7122 25.8553 67.792 25.8501 67.8747C25.8449 67.9575 25.8627 68.0401 25.9015 68.1133C25.9403 68.1866 25.9986 68.2478 26.07 68.29L28.27 69.62C28.6167 69.82 28.7067 70.1034 28.54 70.47C28.12 71.41 27.54 72.28 26.8 73.08C26.7105 73.1775 26.6428 73.2929 26.6014 73.4186C26.5601 73.5443 26.546 73.6774 26.5602 73.809C26.5744 73.9406 26.6165 74.0676 26.6837 74.1816C26.751 74.2956 26.8417 74.3939 26.95 74.47C27.91 75.1367 28.4467 76.0367 28.56 77.17C28.6467 78.0634 29.13 78.44 30.01 78.3C32.4833 77.9 35.04 77.4667 37.68 77C40.06 76.58 41.7133 76.8467 42.64 77.8C43.3467 78.5267 43.1933 78.9067 42.18 78.94L33.33 79.23C33.2053 79.2346 33.0838 79.2706 32.9768 79.3347C32.8698 79.3988 32.7807 79.4889 32.7178 79.5967C32.6549 79.7044 32.6203 79.8263 32.6172 79.9511C32.6141 80.0758 32.6426 80.1993 32.7 80.31C36.86 88.25 46.97 80.32 53.58 81.93C55.0867 82.2967 55.0833 82.6434 53.57 82.97C49.55 83.83 45.02 84.19 41.04 85.66C40.975 85.6854 40.9168 85.7259 40.8706 85.7781C40.8244 85.8302 40.7915 85.8925 40.7748 85.9595C40.7581 86.0264 40.758 86.0961 40.7746 86.1624C40.7912 86.2287 40.8239 86.2896 40.87 86.34C41.8 87.38 42.77 88.56 44.02 89.21C46.5867 90.5367 48.8233 92.0867 50.73 93.86C50.9967 94.1067 51.3133 94.26 51.68 94.32C55.02 94.84 59.73 95.38 62.08 98.05C63.64 99.81 63.2866 100.377 61.02 99.75C58.6133 99.0967 56.0733 98.07 53.4 96.67C51.37 95.61 48.59 95.83 46.87 94.48C44.6233 92.7067 41.9233 90.95 38.77 89.21C38.6974 89.1705 38.619 89.1466 38.54 89.14Z" fill="#44B206"/>
<path d="M93.42 53.94C93.4251 53.8507 93.4478 53.7632 93.4868 53.6826C93.5257 53.6021 93.5802 53.53 93.6471 53.4705C93.714 53.4111 93.792 53.3654 93.8766 53.3361C93.9611 53.3069 94.0507 53.2946 94.14 53.3L95.47 53.37C95.9067 53.3947 96.3174 53.5592 96.6118 53.8274C96.9062 54.0955 97.0602 54.4454 97.04 54.8L97.01 55.3C97.0007 55.4758 96.9488 55.6476 96.8573 55.8056C96.7658 55.9636 96.6364 56.1047 96.4767 56.2208C96.317 56.3369 96.13 56.4257 95.9263 56.4822C95.7227 56.5387 95.5065 56.5617 95.29 56.55L93.97 56.48C93.8798 56.4762 93.7912 56.4544 93.7095 56.416C93.6278 56.3776 93.5545 56.3233 93.494 56.2563C93.4335 56.1893 93.387 56.1109 93.3571 56.0257C93.3272 55.9405 93.3146 55.8501 93.32 55.76L93.42 53.94Z" fill="#44B206"/>
<path d="M53.5037 56.8966C54.5355 57.3888 55.7151 57.0685 56.1383 56.1812C56.5616 55.2939 56.0682 54.1756 55.0363 53.6834C54.0044 53.1912 52.8249 53.5115 52.4016 54.3988C51.9784 55.2861 52.4718 56.4044 53.5037 56.8966Z" fill="#44B206"/>
<path d="M71.22 88.81C68.45 90.61 64.74 90.51 62.29 88.62C61.28 87.84 61.14 86.16 61.81 85.2C62.59 84.0867 63.1767 84.1833 63.57 85.49L64.16 87.44C64.2209 87.644 64.3228 87.8335 64.4592 87.997C64.5957 88.1604 64.764 88.2944 64.9539 88.3907C65.1438 88.4871 65.3513 88.5438 65.5638 88.5574C65.7763 88.571 65.9894 88.5413 66.19 88.47C70.2767 87.0233 72.36 83.7567 72.44 78.67C72.54 72.36 64.38 70.62 64.72 65.01C64.7296 64.859 64.7766 64.7125 64.8568 64.5835C64.937 64.4544 65.048 64.3467 65.18 64.27C69.82 61.58 76.32 61.72 81.51 62.96C82.15 63.1133 82.4233 63.52 82.33 64.18C81.83 67.44 79.37 69.46 76.89 71.34C76.6029 71.5552 76.3843 71.8468 76.26 72.18C74.8067 76.0667 73.8567 80.18 73.41 84.52C73.3767 84.86 73.4467 85.1767 73.62 85.47C74.22 86.4833 74.9867 87.3267 75.92 88C77.77 89.31 80.25 88.97 80.98 86.71C81.41 85.4 81.88 83.85 83.24 83.24C83.3022 83.2116 83.3702 83.1985 83.4386 83.2016C83.5069 83.2047 83.5739 83.2241 83.634 83.258C83.6942 83.292 83.7459 83.3397 83.7851 83.3973C83.8244 83.4549 83.85 83.5209 83.86 83.59C84.92 90.75 76.73 92.23 72.3 88.85C72.1483 88.7331 71.9632 88.6666 71.77 88.6594C71.5767 88.6523 71.3846 88.7049 71.22 88.81ZM78.37 64.92C75.43 64.45 71.33 62.78 68.76 64.61C68.6879 64.661 68.6273 64.7265 68.5821 64.8024C68.537 64.8783 68.5083 64.9628 68.4979 65.0505C68.4876 65.1382 68.4957 65.2271 68.5219 65.3114C68.5481 65.3958 68.5918 65.4736 68.65 65.54L73.21 70.89C73.69 71.4567 74.25 71.5467 74.89 71.16C76.73 70.04 78.18 68.5833 79.24 66.79C79.3442 66.6143 79.4041 66.4157 79.4145 66.2117C79.4249 66.0078 79.3854 65.8046 79.2995 65.6201C79.2137 65.4355 79.084 65.2752 78.922 65.1532C78.7599 65.0311 78.5704 64.9511 78.37 64.92Z" fill="#44B206"/>
</svg>

